<svg
    xmlns="http://www.w3.org/2000/svg"
    width="64"
    height="64"
    viewBox="0 0 64 64"
    fill="none"
>
    <rect width="64" height="64" rx="18" fill="#F7EFE1" />
    <path
        d="M18 39.8 9.9 42.3a2.8 2.8 0 0 0-1.7 3.9l.2.4a2.8 2.8 0 0 0 3.4 1.5L32 42l20.2 6.1a2.8 2.8 0 0 0 3.4-1.5l.2-.4a2.8 2.8 0 0 0-1.7-3.9L46 39.8 32 43.6 18 39.8Z"
        fill="#6B4507"
    />
    <path
        d="M20.3 22.8c0-2 1.6-3.6 3.6-3.6h2c1.9-4.6 6.9-7.2 12.3-7.2 7.9 0 14.4 5.8 15.3 13.3h2c2 0 3.6 1.6 3.6 3.6v9.5c0 2-1.6 3.6-3.6 3.6h-7.6a10 10 0 0 0-3.9-2.7l5.2-9.2-1-.6-3.1 5.4a10.5 10.5 0 0 0-3.4-2.6V19.4h-1.2v12c-.7-.1-1.3-.2-2-.2h-.4L35 26.4l-.9.6 2.7 4a9.6 9.6 0 0 0-3.4 2V19.4h-1.1v15.2a9.7 9.7 0 0 0-2.5 4.4h-5.9c-2 0-3.6-1.6-3.6-3.6v-12.6Z"
        fill="#6B4507"
    />
    <path
        d="M19.7 41.3c2.7-2.3 7.8-3.9 12.3-3.9 4.5 0 9.6 1.6 12.3 3.9l-.4 4.5c-3.4-1.3-7.7-2.2-11.9-2.2s-8.5.9-11.9 2.2l-.4-4.5Z"
        fill="#6B4507"
    />
    <circle cx="28.4" cy="37.9" r="4.8" fill="#FCEBCC" />
    <circle cx="40.4" cy="37.9" r="4.8" fill="#FCEBCC" />
    <path d="M33.2 37.2h3v1.3h-3z" fill="#6B4507" />
</svg>
